<svg xmlns="http://www.w3.org/2000/svg" width="18.396" height="15.275" viewBox="0 0 18.396 15.275">
  <g id="Group_580" data-name="Group 580" transform="translate(-1295.124 -450.695)">
    <path id="Path_256" data-name="Path 256" d="M1304.192,463.292a7.934,7.934,0,0,1,4.661,5.956l-.74.153a27.243,27.243,0,0,0-1.419-2.883,5.534,5.534,0,0,0-6.369-2.368,6.171,6.171,0,0,0-4.085,4.345c-.248.815-.228.821-1.115.515a7.627,7.627,0,0,1,4.726-5.755,3.968,3.968,0,0,1-1.614-3.9,3.69,3.69,0,0,1,1.377-2.336,3.9,3.9,0,0,1,5.211.345A3.94,3.94,0,0,1,1304.192,463.292Zm-5.057-3.3a2.9,2.9,0,1,0,5.8.032,2.9,2.9,0,0,0-5.8-.032Z" transform="translate(0 -3.429)" fill="#b3b3b3"/>
    <path id="Path_257" data-name="Path 257" d="M1324.923,456.431a2.425,2.425,0,0,0,2.251-2.013,2.107,2.107,0,0,0-1.008-2.342,2.342,2.342,0,0,0-3.069.33l-.622-.569c.941-1.441,3.128-1.43,4.376-.461,1.432,1.112,2.11,3.164.024,5.353.159.092.3.178.449.26a6.361,6.361,0,0,1,3.214,4.1c.188.731.135.779-.755.789a5.808,5.808,0,0,0-1.5-2.992,4.42,4.42,0,0,0-2.829-1.455C1324.736,457.374,1324.892,456.915,1324.923,456.431Z" transform="translate(-17.104)" fill="#b3b3b3"/>
  </g>
</svg>
