<svg xmlns="http://www.w3.org/2000/svg" width="52.704" height="52.954" viewBox="0 0 52.704 52.954">
  <path id="Path_91" data-name="Path 91" d="M2673.291,4777.924a26.121,26.121,0,0,1,26.4-26.6c15.34.118,26.178,11.911,26.307,26.478a26.352,26.352,0,1,1-52.7.121Zm22.487,7.258c0,1.787.081,3.58-.021,5.361-.124,2.182,1.08,2.543,2.9,2.532,1.766-.011,3.007-.246,2.944-2.478-.1-3.572.014-7.15-.032-10.725-.02-1.6.55-2.486,2.247-2.42,2.387.092,2.432-1.689,2.6-3.317.193-1.9-1.091-2.082-2.513-2.075-1.47.006-2.281-.648-2.26-2.205.02-1.54.83-2.191,2.295-2.206a8.623,8.623,0,0,0,1.214-.085c1.169-.176,1.33-1.058,1.31-2-.022-1.022.221-2.151-1.147-2.642-5.071-1.819-9.289.945-9.519,6.326-.06,1.415-.338,2.372-1.87,2.988-1.644.661-1.631,4.426.025,5.062,1.713.657,1.854,1.805,1.833,3.252C2695.753,4782.094,2695.771,4783.638,2695.778,4785.182Z" transform="translate(-2673.291 -4751.324)" fill="#b3b3b3"/>
</svg>
