<svg width="16" height="16" viewBox="0 0 16 16" fill="none" xmlns="http://www.w3.org/2000/svg">
<path d="M0 2C0 0.895431 0.895431 0 2 0H14C15.1046 0 16 0.895431 16 2V14C16 15.1046 15.1046 16 14 16H2C0.895431 16 0 15.1046 0 14V2Z" fill="#2353FF"/>
<path fill-rule="evenodd" clip-rule="evenodd" d="M11.7031 4.09608C11.9989 4.28095 12.0888 4.6706 11.9039 4.96639L7.69345 11.7032C7.58308 11.8798 7.39275 11.9906 7.18469 11.9994C6.97662 12.0083 6.77758 11.914 6.65263 11.7474L4.12635 8.37898C3.91707 8.09994 3.97362 7.70407 4.25266 7.49478C4.53171 7.2855 4.92758 7.34205 5.13686 7.6211L7.11049 10.2526L10.8328 4.29692C11.0176 4.00114 11.4073 3.91122 11.7031 4.09608Z" fill="white"/>
<path d="M2 1H14V-1H2V1ZM15 2V14H17V2H15ZM14 15H2V17H14V15ZM1 14V2H-1V14H1ZM2 15C1.44772 15 1 14.5523 1 14H-1C-1 15.6569 0.343146 17 2 17V15ZM15 14C15 14.5523 14.5523 15 14 15V17C15.6569 17 17 15.6569 17 14H15ZM14 1C14.5523 1 15 1.44772 15 2H17C17 0.343146 15.6569 -1 14 -1V1ZM2 -1C0.343146 -1 -1 0.343146 -1 2H1C1 1.44772 1.44772 1 2 1V-1Z" fill="#1A3EBF"/>
</svg>
