<svg xmlns="http://www.w3.org/2000/svg" width="52.775" height="52.639" viewBox="0 0 52.775 52.639">
  <g id="Group_191" data-name="Group 191" transform="translate(-2873.223 -4751.481)">
    <g id="Group_190" data-name="Group 190">
      <path id="Path_95" data-name="Path 95" d="M2899.834,4751.527a26.3,26.3,0,0,1-.193,52.593c-15.279-.03-26.339-12.2-26.418-26.607C2873.148,4763.928,2885.383,4750.6,2899.834,4751.527ZM2886,4777.514v7.553c0,.162,0,.325.006.487.121,3.318,2.282,5.8,5.6,5.9q8.032.237,16.076,0a5.648,5.648,0,0,0,5.576-5.907c.057-5.2.076-10.4-.014-15.592a5.876,5.876,0,0,0-5.966-6.1q-7.671-.174-15.348,0c-3.587.084-5.849,2.527-5.915,6.1C2885.965,4772.478,2886,4775,2886,4777.514Z" fill="#b3b3b3"/>
      <path id="Path_96" data-name="Path 96" d="M2904.545,4777.733a4.907,4.907,0,0,1-4.824,5.031,5.088,5.088,0,1,1-.169-10.173A4.991,4.991,0,0,1,2904.545,4777.733Z" fill="#b3b3b3"/>
      <path id="Path_97" data-name="Path 97" d="M2911.365,4777.745c0-2.439.037-4.878-.008-7.315-.056-3.061-1.367-4.566-4.429-4.645q-7.31-.19-14.627,0c-2.834.072-4.334,1.707-4.365,4.5q-.084,7.436,0,14.873c.04,3.069,1.425,4.409,4.56,4.446q7.191.086,14.386,0c3.083-.043,4.4-1.418,4.468-4.545C2911.41,4782.622,2911.364,4780.183,2911.365,4777.745Zm-11.63,6.959a6.958,6.958,0,0,1-6.925-6.914c-.48-4.315,3.755-7.061,6.726-7.115a6.942,6.942,0,0,1,6.927,6.947C2906.485,4781.747,2903.727,4784.651,2899.735,4784.7Zm7.241-12.642a1.464,1.464,0,1,1,1.463-1.463A1.464,1.464,0,0,1,2906.976,4772.062Z" fill="#b3b3b3"/>
    </g>
  </g>
</svg>
