<svg width="158" height="140" viewBox="0 0 158 140" fill="none" xmlns="http://www.w3.org/2000/svg">
  <rect x="89.6553" y="107.586" width="11.0345" height="11.0345" fill="#FFD643" />
  <rect x="89.6553" y="71.7241" width="11.0345" height="11.0345" fill="#FF601C" />
  <rect x="143.448" y="107.586" width="11.0345" height="11.0345" fill="black" fill-opacity="0.1" />
  <rect x="143.448" y="35.8621" width="11.0345" height="11.0345" fill="black" fill-opacity="0.1" />
  <rect x="71.7241" y="71.7241" width="11.0345" height="11.0345" fill="black" fill-opacity="0.1" />
  <rect x="35.8619" y="125.517" width="11.0345" height="11.0345" fill="#FF601C" />
  <rect y="125.517" width="11.0345" height="11.0345" fill="black" fill-opacity="0.1" />
  <rect x="107.586" y="125.517" width="11.0345" height="11.0345" fill="#6BDAFF" />
  <rect x="107.586" y="53.7931" width="11.0345" height="11.0345" fill="black" fill-opacity="0.1" />
  <rect x="107.586" y="89.6552" width="11.0345" height="11.0345" fill="black" fill-opacity="0.1" />
  <rect x="107.586" y="17.931" width="11.0345" height="11.0345" fill="black" fill-opacity="0.1" />
  <rect x="53.7931" y="125.517" width="11.0345" height="11.0345" fill="black" fill-opacity="0.1" />
  <rect x="17.9312" y="125.517" width="11.0345" height="11.0345" fill="#2353FF" />
  <rect x="125.517" y="125.517" width="11.0345" height="11.0345" fill="#6BDAFF" />
  <rect x="125.517" y="17.931" width="11.0345" height="11.0345" fill="black" fill-opacity="0.1" />
  <rect x="125.517" width="11.0345" height="11.0345" fill="black" fill-opacity="0.1" />
  <rect x="53.7931" y="89.6552" width="11.0345" height="11.0345" fill="black" fill-opacity="0.1" />
  <rect x="143.448" y="53.7931" width="11.0345" height="11.0345" fill="#FFD643" />
  <rect x="71.7241" y="89.6552" width="11.0345" height="11.0345" fill="black" fill-opacity="0.1" />
  <rect x="71.7241" y="53.7931" width="11.0345" height="11.0345" fill="black" fill-opacity="0.1" />
  <rect x="107.586" y="71.7241" width="11.0345" height="11.0345" fill="black" fill-opacity="0.1" />
  <rect x="107.586" y="35.8621" width="11.0345" height="11.0345" fill="black" fill-opacity="0.1" />
  <rect x="35.8619" y="107.586" width="11.0345" height="11.0345" fill="black" fill-opacity="0.1" />
  <rect y="107.586" width="11.0345" height="11.0345" fill="black" fill-opacity="0.1" />
  <rect x="89.6553" y="125.517" width="11.0345" height="11.0345" fill="black" fill-opacity="0.1" />
  <rect x="89.6553" y="89.6552" width="11.0345" height="11.0345" fill="black" fill-opacity="0.1" />
  <rect x="89.6553" y="53.7931" width="11.0345" height="11.0345" fill="black" fill-opacity="0.1" />
  <rect x="125.517" y="107.586" width="11.0345" height="11.0345" fill="black" fill-opacity="0.1" />
  <rect x="125.517" y="35.8621" width="11.0345" height="11.0345" fill="black" fill-opacity="0.1" />
  <rect x="53.7931" y="107.586" width="11.0345" height="11.0345" fill="#FF601C" />
  <rect x="17.9312" y="107.586" width="11.0345" height="11.0345" fill="black" fill-opacity="0.1" />
</svg>