<svg width="458" height="400" viewBox="0 0 458 400" fill="none" xmlns="http://www.w3.org/2000/svg">
  <rect x="442" y="257" width="16" height="16" fill="black" fill-opacity="0.1" />
  <rect x="442" y="361" width="16" height="16" fill="black" fill-opacity="0.1" />
  <rect x="442" y="387" width="16" height="16" fill="black" fill-opacity="0.1" />
  <rect x="338" y="257" width="16" height="16" fill="#FFD643" />
  <rect x="338" y="361" width="16" height="16" fill="black" fill-opacity="0.1" />
  <rect x="338" y="387" width="16" height="16" fill="black" fill-opacity="0.1" />
  <rect x="234" y="257" width="16" height="16" fill="black" fill-opacity="0.1" />
  <rect x="234" y="361" width="16" height="16" fill="black" fill-opacity="0.1" />
  <rect x="130" y="257" width="16" height="16" fill="black" fill-opacity="0.1" />
  <rect x="130" y="205" width="16" height="16" fill="black" fill-opacity="0.1" />
  <rect x="338" y="205" width="16" height="16" fill="#FF601C" />
  <rect x="338" y="309" width="16" height="16" fill="#2353FF" />
  <rect x="338" y="101" width="16" height="16" fill="#6BDAFF" />
  <rect x="442" y="205" width="16" height="16" fill="black" fill-opacity="0.1" />
  <rect x="442" y="309" width="16" height="16" fill="black" fill-opacity="0.1" />
  <rect x="442" y="101" width="16" height="16" fill="black" fill-opacity="0.1" />
  <rect x="338" y="153" width="16" height="16" fill="#FFD643" />
  <rect x="338" y="49" width="16" height="16" fill="black" fill-opacity="0.1" />
  <rect x="390" y="153" width="16" height="16" fill="#2353FF" />
  <rect x="442" y="153" width="16" height="16" fill="black" fill-opacity="0.1" />
  <rect x="442" y="49" width="16" height="16" fill="black" fill-opacity="0.1" />
  <rect x="234" y="153" width="16" height="16" fill="#FFD643" />
  <rect x="130" y="153" width="16" height="16" fill="#FFD643" />
  <rect x="130" y="101" width="16" height="16" fill="#FF601C" />
  <rect x="416" y="257" width="16" height="16" fill="#2353FF" />
  <rect x="416" y="361" width="16" height="16" fill="black" fill-opacity="0.1" />
  <rect x="416" y="387" width="16" height="16" fill="black" fill-opacity="0.1" />
  <rect x="312" y="257" width="16" height="16" fill="black" fill-opacity="0.1" />
  <rect x="312" y="361" width="16" height="16" fill="black" fill-opacity="0.1" />
  <rect x="312" y="387" width="16" height="16" fill="black" fill-opacity="0.1" />
  <rect x="208" y="257" width="16" height="16" fill="black" fill-opacity="0.1" />
  <rect x="208" y="361" width="16" height="16" fill="black" fill-opacity="0.1" />
  <rect x="104" y="257" width="16" height="16" fill="black" fill-opacity="0.1" />
  <rect x="104" y="205" width="16" height="16" fill="black" fill-opacity="0.1" />
  <rect x="208" y="205" width="16" height="16" fill="black" fill-opacity="0.1" />
  <rect x="312" y="205" width="16" height="16" fill="#FFD643" />
  <rect x="312" y="309" width="16" height="16" fill="black" fill-opacity="0.1" />
  <rect x="312" y="101" width="16" height="16" fill="black" fill-opacity="0.1" />
  <rect x="416" y="205" width="16" height="16" fill="black" fill-opacity="0.1" />
  <rect x="416" y="309" width="16" height="16" fill="#FFD643" />
  <rect x="416" y="101" width="16" height="16" fill="black" fill-opacity="0.1" />
  <rect x="312" y="153" width="16" height="16" fill="black" fill-opacity="0.1" />
  <rect x="364" y="153" width="16" height="16" fill="#2353FF" />
  <rect x="364" y="49" width="16" height="16" fill="#6BDAFF" />
  <rect x="416" y="153" width="16" height="16" fill="black" fill-opacity="0.1" />
  <rect x="416" y="49" width="16" height="16" fill="black" fill-opacity="0.1" />
  <rect x="208" y="153" width="16" height="16" fill="black" fill-opacity="0.1" />
  <rect x="208" y="49" width="16" height="16" fill="black" fill-opacity="0.1" />
  <rect x="104" y="101" width="16" height="16" fill="black" fill-opacity="0.1" />
  <rect x="364" y="231" width="16" height="16" fill="black" fill-opacity="0.1" />
  <rect x="364" y="335" width="16" height="16" fill="#2353FF" />
  <rect x="260" y="231" width="16" height="16" fill="black" fill-opacity="0.1" />
  <rect x="260" y="335" width="16" height="16" fill="#FF601C" />
  <rect x="156" y="335" width="16" height="16" fill="black" fill-opacity="0.1" />
  <rect x="52" y="231" width="16" height="16" fill="black" fill-opacity="0.1" />
  <rect x="52" y="179" width="16" height="16" fill="#FF601C" />
  <rect y="179" width="16" height="16" fill="black" fill-opacity="0.1" />
  <rect x="156" y="179" width="16" height="16" fill="#6BDAFF" />
  <rect x="156" y="75" width="16" height="16" fill="black" fill-opacity="0.1" />
  <rect x="260" y="75" width="16" height="16" fill="black" fill-opacity="0.1" />
  <rect x="364" y="179" width="16" height="16" fill="#FF601C" />
  <rect x="364" y="283" width="16" height="16" fill="#FFD643" />
  <rect x="156" y="127" width="16" height="16" fill="black" fill-opacity="0.1" />
  <rect x="156" y="23" width="16" height="16" fill="black" fill-opacity="0.1" />
  <rect x="390" y="335" width="16" height="16" fill="black" fill-opacity="0.1" />
  <rect x="286" y="231" width="16" height="16" fill="#FF601C" />
  <rect x="286" y="335" width="16" height="16" fill="black" fill-opacity="0.1" />
  <rect x="182" y="231" width="16" height="16" fill="#FF601C" />
  <rect x="78" y="179" width="16" height="16" fill="black" fill-opacity="0.1" />
  <rect x="26" y="179" width="16" height="16" fill="#2353FF" />
  <rect x="182" y="179" width="16" height="16" fill="#6BDAFF" />
  <rect x="182" y="283" width="16" height="16" fill="#FF601C" />
  <rect x="286" y="179" width="16" height="16" fill="black" fill-opacity="0.1" />
  <rect x="390" y="179" width="16" height="16" fill="#FF601C" />
  <rect x="390" y="283" width="16" height="16" fill="black" fill-opacity="0.1" />
  <rect x="390" y="75" width="16" height="16" fill="#6BDAFF" />
  <rect x="182" y="23" width="16" height="16" fill="black" fill-opacity="0.1" />
  <rect x="182" y="-3" width="16" height="16" fill="black" fill-opacity="0.1" />
  <rect x="78" y="127" width="16" height="16" fill="black" fill-opacity="0.1" />
  <rect x="416" y="231" width="16" height="16" fill="black" fill-opacity="0.1" />
  <rect x="416" y="335" width="16" height="16" fill="black" fill-opacity="0.1" />
  <rect x="312" y="231" width="16" height="16" fill="black" fill-opacity="0.1" />
  <rect x="312" y="335" width="16" height="16" fill="black" fill-opacity="0.1" />
  <rect x="208" y="231" width="16" height="16" fill="#FFD643" />
  <rect x="208" y="335" width="16" height="16" fill="black" fill-opacity="0.1" />
  <rect x="104" y="231" width="16" height="16" fill="black" fill-opacity="0.1" />
  <rect x="208" y="75" width="16" height="16" fill="#FFD643" />
  <rect x="312" y="179" width="16" height="16" fill="#FFD643" />
  <rect x="312" y="283" width="16" height="16" fill="#2353FF" />
  <rect x="312" y="75" width="16" height="16" fill="black" fill-opacity="0.1" />
  <rect x="416" y="283" width="16" height="16" fill="black" fill-opacity="0.1" />
  <rect x="416" y="75" width="16" height="16" fill="black" fill-opacity="0.1" />
  <rect x="312" y="127" width="16" height="16" fill="black" fill-opacity="0.1" />
  <rect x="312" y="23" width="16" height="16" fill="black" fill-opacity="0.1" />
  <rect x="364" y="127" width="16" height="16" fill="#2353FF" />
  <rect x="364" y="23" width="16" height="16" fill="black" fill-opacity="0.1" />
  <rect x="364" y="-3" width="16" height="16" fill="black" fill-opacity="0.1" />
  <rect x="416" y="127" width="16" height="16" fill="black" fill-opacity="0.1" />
  <rect x="416" y="23" width="16" height="16" fill="black" fill-opacity="0.1" />
  <rect x="104" y="127" width="16" height="16" fill="black" fill-opacity="0.1" />
  <rect x="104" y="75" width="16" height="16" fill="black" fill-opacity="0.1" />
  <rect x="364" y="257" width="16" height="16" fill="#FFD643" />
  <rect x="364" y="361" width="16" height="16" fill="black" fill-opacity="0.1" />
  <rect x="364" y="387" width="16" height="16" fill="black" fill-opacity="0.1" />
  <rect x="260" y="257" width="16" height="16" fill="black" fill-opacity="0.1" />
  <rect x="260" y="361" width="16" height="16" fill="black" fill-opacity="0.1" />
  <rect x="260" y="387" width="16" height="16" fill="black" fill-opacity="0.1" />
  <rect x="156" y="257" width="16" height="16" fill="black" fill-opacity="0.1" />
  <rect x="156" y="361" width="16" height="16" fill="black" fill-opacity="0.1" />
  <rect x="52" y="257" width="16" height="16" fill="black" fill-opacity="0.1" />
  <rect x="52" y="205" width="16" height="16" fill="black" fill-opacity="0.1" />
  <rect y="205" width="16" height="16" fill="black" fill-opacity="0.1" />
  <rect x="156" y="205" width="16" height="16" fill="#6BDAFF" />
  <rect x="156" y="101" width="16" height="16" fill="black" fill-opacity="0.1" />
  <rect x="260" y="205" width="16" height="16" fill="black" fill-opacity="0.1" />
  <rect x="364" y="205" width="16" height="16" fill="#FF601C" />
  <rect x="364" y="309" width="16" height="16" fill="black" fill-opacity="0.1" />
  <rect x="364" y="101" width="16" height="16" fill="black" fill-opacity="0.1" />
  <rect x="260" y="49" width="16" height="16" fill="black" fill-opacity="0.1" />
  <rect x="156" y="49" width="16" height="16" fill="black" fill-opacity="0.1" />
  <rect x="52" y="153" width="16" height="16" fill="black" fill-opacity="0.1" />
  <rect y="153" width="16" height="16" fill="black" fill-opacity="0.1" />
  <rect x="442" y="231" width="16" height="16" fill="black" fill-opacity="0.1" />
  <rect x="442" y="335" width="16" height="16" fill="black" fill-opacity="0.1" />
  <rect x="338" y="231" width="16" height="16" fill="black" fill-opacity="0.1" />
  <rect x="338" y="335" width="16" height="16" fill="#2353FF" />
  <rect x="234" y="231" width="16" height="16" fill="#2353FF" />
  <rect x="234" y="335" width="16" height="16" fill="black" fill-opacity="0.1" />
  <rect x="130" y="231" width="16" height="16" fill="#2353FF" />
  <rect x="130" y="179" width="16" height="16" fill="black" fill-opacity="0.1" />
  <rect x="234" y="179" width="16" height="16" fill="black" fill-opacity="0.1" />
  <rect x="234" y="75" width="16" height="16" fill="black" fill-opacity="0.1" />
  <rect x="338" y="179" width="16" height="16" fill="black" fill-opacity="0.1" />
  <rect x="338" y="283" width="16" height="16" fill="black" fill-opacity="0.1" />
  <rect x="338" y="75" width="16" height="16" fill="#6BDAFF" />
  <rect x="442" y="179" width="16" height="16" fill="black" fill-opacity="0.1" />
  <rect x="442" y="283" width="16" height="16" fill="black" fill-opacity="0.1" />
  <rect x="442" y="75" width="16" height="16" fill="black" fill-opacity="0.1" />
  <rect x="338" y="127" width="16" height="16" fill="black" fill-opacity="0.1" />
  <rect x="338" y="23" width="16" height="16" fill="black" fill-opacity="0.1" />
  <rect x="338" y="-3" width="16" height="16" fill="black" fill-opacity="0.1" />
  <rect x="390" y="127" width="16" height="16" fill="black" fill-opacity="0.1" />
  <rect x="442" y="127" width="16" height="16" fill="black" fill-opacity="0.1" />
  <rect x="442" y="23" width="16" height="16" fill="black" fill-opacity="0.1" />
  <rect x="442" y="-3" width="16" height="16" fill="black" fill-opacity="0.1" />
  <rect x="234" y="23" width="16" height="16" fill="black" fill-opacity="0.1" />
  <rect x="130" y="127" width="16" height="16" fill="black" fill-opacity="0.1" />
  <rect x="130" y="75" width="16" height="16" fill="black" fill-opacity="0.1" />
  <rect x="390" y="257" width="16" height="16" fill="black" fill-opacity="0.1" />
  <rect x="390" y="361" width="16" height="16" fill="black" fill-opacity="0.1" />
  <rect x="390" y="387" width="16" height="16" fill="black" fill-opacity="0.1" />
  <rect x="286" y="257" width="16" height="16" fill="black" fill-opacity="0.1" />
  <rect x="286" y="361" width="16" height="16" fill="black" fill-opacity="0.1" />
  <rect x="286" y="387" width="16" height="16" fill="black" fill-opacity="0.1" />
  <rect x="182" y="361" width="16" height="16" fill="black" fill-opacity="0.1" />
  <rect x="78" y="257" width="16" height="16" fill="black" fill-opacity="0.1" />
  <rect x="78" y="205" width="16" height="16" fill="#2353FF" />
  <rect x="26" y="205" width="16" height="16" fill="black" fill-opacity="0.1" />
  <rect x="182" y="205" width="16" height="16" fill="black" fill-opacity="0.1" />
  <rect x="286" y="205" width="16" height="16" fill="#FFD643" />
  <rect x="390" y="205" width="16" height="16" fill="#FF601C" />
  <rect x="390" y="309" width="16" height="16" fill="black" fill-opacity="0.1" />
  <rect x="390" y="101" width="16" height="16" fill="#6BDAFF" />
  <rect x="286" y="153" width="16" height="16" fill="#2353FF" />
  <rect x="286" y="49" width="16" height="16" fill="black" fill-opacity="0.1" />
  <rect x="182" y="153" width="16" height="16" fill="black" fill-opacity="0.1" />
  <rect x="182" y="49" width="16" height="16" fill="black" fill-opacity="0.1" />
  <rect x="78" y="153" width="16" height="16" fill="#FF601C" />
  <rect x="26" y="153" width="16" height="16" fill="black" fill-opacity="0.1" />
</svg>