<svg xmlns="http://www.w3.org/2000/svg" width="52.709" height="52.966" viewBox="0 0 52.709 52.966">
  <g id="Group_189" data-name="Group 189" transform="translate(-2773.199 -4751.318)">
    <g id="Group_188" data-name="Group 188">
      <path id="Path_93" data-name="Path 93" d="M2825.908,4777.686a26.355,26.355,0,1,1-52.708.111c.1-14.2,10.791-26.47,26.575-26.479A26.1,26.1,0,0,1,2825.908,4777.686Zm-26.182-10.978c-3.56.187-7.122-.083-10.693.4-2.408.323-3.776,1.438-4.141,3.7a44.579,44.579,0,0,0,0,14.282c.4,2.467,2.042,3.4,4.478,3.6a124.274,124.274,0,0,0,20.4-.017c2.848-.242,4.51-1.46,4.722-4.241a79.115,79.115,0,0,0-.025-13.134,4.354,4.354,0,0,0-4.054-4.156C2806.856,4766.542,2803.288,4766.9,2799.726,4766.708Z" fill="#b3b3b3"/>
      <path id="Path_94" data-name="Path 94" d="M2796.108,4777.579c0-4.819.025-4.866,4.311-2.6,1.372.726,3.768.987,3.719,2.574-.043,1.407-2.348,1.906-3.75,2.631C2795.816,4782.552,2796.1,4782.771,2796.108,4777.579Z" fill="#b3b3b3"/>
    </g>
  </g>
</svg>
