<svg width="24" height="24" viewBox="0 0 24 24" xmlns="http://www.w3.org/2000/svg">
  <path
    d="M15.5005 20.0003C15.3075 20.0003 15.1155 19.9263 14.9685 19.7793L8.11449 12.8823C7.62849 12.3963 7.62849 11.6033 8.11649 11.1163L14.9685 4.22125C15.2605 3.92725 15.7355 3.92625 16.0295 4.21825C16.3235 4.51025 16.3245 4.98525 16.0325 5.27925L9.35249 12.0003L16.0325 18.7213C16.3245 19.0153 16.3235 19.4903 16.0295 19.7823C15.8825 19.9273 15.6915 20.0003 15.5005 20.0003ZM9.17949 12.1743L9.17849 12.1753L9.17949 12.1743ZM9.17649 11.8233L9.17749 11.8243C9.17749 11.8243 9.17749 11.8243 9.17649 11.8233Z" />
</svg>