<svg width="20" height="20" xmlns="http://www.w3.org/2000/svg">
  <path
    d="M9.25 14h1.5v-3.25H14v-1.5h-3.25V6h-1.5v3.25H6v1.5h3.25V14zm.756 4a7.81 7.81 0 01-3.11-.625 8.064 8.064 0 01-2.552-1.719 8.065 8.065 0 01-1.719-2.551A7.818 7.818 0 012 9.99c0-1.104.208-2.14.625-3.105a8.066 8.066 0 014.27-4.26A7.818 7.818 0 0110.009 2a7.75 7.75 0 013.106.625 8.082 8.082 0 014.26 4.265A7.77 7.77 0 0118 9.994a7.81 7.81 0 01-.625 3.11 8.063 8.063 0 01-1.719 2.552 8.08 8.08 0 01-2.546 1.719 7.77 7.77 0 01-3.104.625zM10 16.5c1.806 0 3.34-.632 4.604-1.896C15.868 13.34 16.5 11.806 16.5 10s-.632-3.34-1.896-4.604C13.34 4.132 11.806 3.5 10 3.5s-3.34.632-4.604 1.896C4.132 6.66 3.5 8.194 3.5 10s.632 3.34 1.896 4.604C6.66 15.868 8.194 16.5 10 16.5z" />
</svg>