<svg width="24" height="24" viewBox="0 0 24 24" xmlns="http://www.w3.org/2000/svg">
  <path
    d="M8.50146 20.0003C8.69446 20.0003 8.88646 19.9263 9.03346 19.7793L15.8875 12.8823C16.3735 12.3963 16.3735 11.6033 15.8855 11.1163L9.03346 4.22125C8.74146 3.92725 8.26646 3.92625 7.97246 4.21825C7.67846 4.51025 7.67746 4.98525 7.96946 5.27925L14.6495 12.0003L7.96946 18.7213C7.67746 19.0153 7.67846 19.4903 7.97246 19.7823C8.11946 19.9273 8.31046 20.0003 8.50146 20.0003ZM14.8225 12.1743L14.8235 12.1753L14.8225 12.1743ZM14.8255 11.8233L14.8245 11.8243C14.8245 11.8243 14.8245 11.8243 14.8255 11.8233Z" />
</svg>