<svg width="20" height="20" viewBox="0 0 20 20" fill="none" xmlns="http://www.w3.org/2000/svg">
<path fill-rule="evenodd" clip-rule="evenodd" d="M17.6089 14.8088C18.49 13.4178 19 11.7684 19 10C19 5.02944 14.9706 1 10 1C5.02944 1 1 5.02944 1 10C1 11.7684 1.51002 13.4177 2.39099 14.8087C4.22516 13.0898 6.95344 12 9.9999 12C13.0464 12 15.7748 13.0899 17.6089 14.8088ZM17.0197 15.6329C15.4062 14.0556 12.9219 13 9.9999 13C7.07801 13 4.59367 14.0555 2.98022 15.6328C4.62976 17.6859 7.16141 19 10 19C12.8385 19 15.3701 17.6859 17.0197 15.6329ZM2.30549 16.3875C4.13979 18.5947 6.90578 20 10 20C15.5228 20 20 15.5228 20 10C20 4.47715 15.5228 0 10 0C4.47715 0 0 4.47715 0 10C0 12.0557 0.620284 13.9665 1.6839 15.5555C1.68388 15.5555 1.68386 15.5555 1.68384 15.5556C1.8768 15.8438 2.08435 16.1215 2.30544 16.3875C2.30545 16.3875 2.30547 16.3875 2.30549 16.3875ZM10 9C11.1046 9 12 8.10457 12 7C12 5.89543 11.1046 5 10 5C8.89543 5 8 5.89543 8 7C8 8.10457 8.89543 9 10 9ZM10 10C11.6569 10 13 8.65685 13 7C13 5.34315 11.6569 4 10 4C8.34315 4 7 5.34315 7 7C7 8.65685 8.34315 10 10 10Z" fill="#5A5A5C"/>
</svg>
