<svg width="24" height="24" viewBox="0 0 24 24" fill="none" xmlns="http://www.w3.org/2000/svg">
<path d="M13.9489 21H5V3H13.2233C14.1929 3.00006 15.1422 3.28695 15.959 3.82679C16.7759 4.36662 17.4262 5.13684 17.8331 6.04645C18.2401 6.95606 18.3866 7.96707 18.2555 8.96002C18.1244 9.95297 17.721 10.8864 17.0932 11.65C17.9133 12.328 18.5099 13.252 18.801 14.295C19.0921 15.3379 19.0632 16.4485 18.7184 17.4738C18.3736 18.4991 17.7299 19.3887 16.8757 20.0202C16.0216 20.6517 14.9991 20.994 13.9489 21ZM7.90236 18H13.9296C14.2154 18 14.4985 17.9418 14.7626 17.8287C15.0267 17.7157 15.2667 17.5499 15.4688 17.341C15.6709 17.1321 15.8313 16.884 15.9407 16.611C16.05 16.3381 16.1063 16.0455 16.1063 15.75C16.1063 15.4545 16.05 15.1619 15.9407 14.889C15.8313 14.616 15.6709 14.3679 15.4688 14.159C15.2667 13.9501 15.0267 13.7843 14.7626 13.6713C14.4985 13.5582 14.2154 13.5 13.9296 13.5H7.90236V18ZM7.90236 10.5H13.2233C13.5092 10.5 13.7923 10.4418 14.0564 10.3287C14.3205 10.2157 14.5604 10.0499 14.7625 9.84099C14.9647 9.63206 15.125 9.38402 15.2344 9.11104C15.3438 8.83806 15.4001 8.54547 15.4001 8.25C15.4001 7.95453 15.3438 7.66194 15.2344 7.38896C15.125 7.11598 14.9647 6.86794 14.7625 6.65901C14.5604 6.45008 14.3205 6.28434 14.0564 6.17127C13.7923 6.0582 13.5092 6 13.2233 6H7.90236V10.5Z" />
</svg>
