<svg width="24" height="24" xmlns="http://www.w3.org/2000/svg">
  <path fill-rule="evenodd" clip-rule="evenodd"
    d="M19.779 8.465a2 2 0 000-2.829l-1.415-1.414a2 2 0 00-2.828 0l-3.182 3.182a.5.5 0 11-.707-.707l3.182-3.182a3 3 0 014.243 0l1.414 1.414a3 3 0 010 4.243l-4.95 4.95a3 3 0 01-4.243 0l-.353-.354a.5.5 0 01.707-.707l.354.353a2 2 0 002.828 0l4.95-4.95zM12 10.586l.354.354a.5.5 0 00.707-.707l-.354-.354a3 3 0 00-4.242 0l-4.95 4.95a3 3 0 000 4.242l1.414 1.414a3 3 0 004.243 0l3.182-3.181a.5.5 0 10-.707-.708l-3.182 3.182a2 2 0 01-2.829 0l-1.414-1.414a2 2 0 010-2.828l4.95-4.95a2 2 0 012.828 0z" />
</svg>