<svg width="36" height="36" viewBox="0 0 36 36" xmlns="http://www.w3.org/2000/svg">
<path fill-rule="evenodd" clip-rule="evenodd" d="M16.0001 3.55543C11.5818 3.55543 8.00007 7.13715 8.00007 11.5554C8.00007 15.9737 11.5818 19.5554 16.0001 19.5554C20.4183 19.5554 24.0001 15.9737 24.0001 11.5554C24.0001 7.13715 20.4183 3.55543 16.0001 3.55543ZM6.22229 11.5554C6.22229 6.15531 10.5999 1.77765 16.0001 1.77765C21.4002 1.77765 25.7778 6.15531 25.7778 11.5554C25.7778 14.9879 24.0092 18.0072 21.3335 19.7519V29.3333C21.3335 29.6535 21.1613 29.949 20.8826 30.1068C20.6039 30.2646 20.2619 30.2602 19.9873 30.0955L16.0002 27.7032L12.0131 30.0955C11.7385 30.2602 11.3965 30.2646 11.1178 30.1068C10.8391 29.949 10.6668 29.6535 10.6668 29.3333V19.752C7.99104 18.0074 6.22229 14.988 6.22229 11.5554ZM12.4446 20.6667V27.7633L15.5429 25.9044C15.8243 25.7355 16.176 25.7355 16.4575 25.9044L19.5557 27.7633V20.6666C18.4537 21.097 17.2545 21.3332 16.0001 21.3332C14.7457 21.3332 13.5466 21.097 12.4446 20.6667ZM16.0002 7.99974C14.0365 7.99974 12.4446 9.59161 12.4446 11.5553C12.4446 13.519 14.0365 15.1108 16.0002 15.1108C17.9639 15.1108 19.5557 13.519 19.5557 11.5553C19.5557 9.59161 17.9639 7.99974 16.0002 7.99974ZM10.6668 11.5553C10.6668 8.60978 13.0547 6.22196 16.0002 6.22196C18.9457 6.22196 21.3335 8.60978 21.3335 11.5553C21.3335 14.5008 18.9457 16.8886 16.0002 16.8886C13.0547 16.8886 10.6668 14.5008 10.6668 11.5553Z"/>
</svg>
