<svg width="32" height="32" viewBox="0 0 32 32" fill="none" xmlns="http://www.w3.org/2000/svg">
<path fill-rule="evenodd" clip-rule="evenodd" d="M18 6H6V20H12C12 20.6906 12.0875 21.3608 12.252 22H4V4H20V12C19.3094 12 18.6392 12.0875 18 12.252V6ZM12.252 18C12.4347 17.2905 12.7122 16.619 13.0703 16H8V18H12.252ZM6 24H13.0703C13.5057 24.7528 14.0604 25.4281 14.7084 26H6V24ZM23 7V12.5815C22.3693 12.3262 21.6986 12.149 21 12.0619V7H23ZM16 8H8V10H16V8ZM14 12H8V14H14V12ZM20 24C22.2091 24 24 22.2091 24 20C24 17.7909 22.2091 16 20 16C17.7909 16 16 17.7909 16 20C16 22.2091 17.7909 24 20 24ZM20 26C23.3137 26 26 23.3137 26 20C26 16.6863 23.3137 14 20 14C16.6863 14 14 16.6863 14 20C14 23.3137 16.6863 26 20 26ZM24.8908 23.4765C24.5016 24.0231 24.0231 24.5016 23.4766 24.8908L26.5569 27.9711L27.9711 26.5569L24.8908 23.4765Z" fill="#52535A"/>
</svg>
