<svg width="36" height="36" viewBox="0 0 36 36" xmlns="http://www.w3.org/2000/svg">
<path fill-rule="evenodd" clip-rule="evenodd" d="M29.3071 5.29289C28.9166 4.90237 28.2834 4.90237 27.8929 5.29289L18.6358 14.55C18.4785 14.7073 18.3782 14.9124 18.3506 15.1331L18.0077 17.876C17.9694 18.1822 18.0747 18.4889 18.2929 18.7071C18.5111 18.9253 18.8178 19.0306 19.124 18.9923L21.8669 18.6494C22.0876 18.6218 22.2927 18.5215 22.45 18.3643L31.7071 9.10711C31.8946 8.91957 32 8.66522 32 8.4C32 8.13478 31.8946 7.88043 31.7071 7.69289L29.3071 5.29289ZM20.2926 15.7216L28.6 7.41421L29.5858 8.4L21.2784 16.7074L20.1518 16.8482L20.2926 15.7216ZM6 6C5.44772 6 5 6.44772 5 7V31C5 31.5523 5.44772 32 6 32H30C30.5523 32 31 31.5523 31 31V16C31 15.4477 30.5523 15 30 15C29.4477 15 29 15.4477 29 16V30H7V8H21C21.5523 8 22 7.55228 22 7C22 6.44772 21.5523 6 21 6H6ZM9 26H27V28H9V26ZM17 22H9V24H17V22Z"/>
</svg>
