<svg width="36" height="36" viewBox="0 0 36 36" fill="none" xmlns="http://www.w3.org/2000/svg">
<path fill-rule="evenodd" clip-rule="evenodd" d="M28.2071 4.29289C27.8166 3.90237 27.1834 3.90237 26.7929 4.29289L13.2929 17.7929C13.1357 17.9501 13.0353 18.1553 13.0077 18.376L12.5077 22.376C12.4695 22.6822 12.5747 22.9889 12.7929 23.2071C13.0111 23.4253 13.3178 23.5306 13.624 23.4923L17.624 22.9923C17.8447 22.9647 18.0499 22.8643 18.2071 22.7071L31.7071 9.20711C32.0976 8.81658 32.0976 8.18342 31.7071 7.79289L28.2071 4.29289ZM14.6518 21.3482L14.9497 18.9645L27.5 6.41421L29.5858 8.5L17.0355 21.0503L14.6518 21.3482ZM6 5C5.44772 5 5 5.44772 5 6V30C5 30.5523 5.44772 31 6 31H30C30.5523 31 31 30.5523 31 30V15C31 14.4477 30.5523 14 30 14C29.4477 14 29 14.4477 29 15V29H7V7H21C21.5523 7 22 6.55228 22 6C22 5.44772 21.5523 5 21 5H6Z" fill="#212124"/>
<path d="M9 25H17V27H9V25Z" fill="#2353FF"/>
</svg>
