<svg width="32" height="32" viewBox="0 0 32 32" fill="none" xmlns="http://www.w3.org/2000/svg">
<path d="M24.3569 15.9999C23.8441 15.9999 23.4283 16.4157 23.4283 16.9285V26.2141C23.4283 26.7269 23.0126 27.1427 22.4997 27.1427H5.78569C5.27284 27.1427 4.85711 26.7269 4.85711 26.2141V7.64286C4.85711 7.13001 5.27284 6.71428 5.78569 6.71428H16.9284C17.4413 6.71428 17.857 6.29855 17.857 5.7857C17.857 5.27285 17.4413 4.85718 16.9284 4.85718H5.78569C4.24719 4.85718 3 6.10437 3 7.64286V26.2141C3 27.7526 4.24719 28.9998 5.78569 28.9998H22.4998C24.0383 28.9998 25.2855 27.7526 25.2855 26.2141V16.9284C25.2855 16.4156 24.8698 15.9999 24.3569 15.9999Z" fill="#232323"/>
<path d="M27.9592 4.04152C27.2924 3.37469 26.3881 3.00015 25.4452 3.00026C24.5017 2.99754 23.5965 3.37274 22.9316 4.04212L10.7005 16.2721C10.599 16.3744 10.5225 16.4986 10.4767 16.6352L8.61962 22.2066C8.45754 22.6932 8.7206 23.219 9.20717 23.381C9.30157 23.4124 9.40043 23.4285 9.49989 23.4286C9.59956 23.4284 9.69864 23.4124 9.79331 23.3812L15.3647 21.5241C15.5015 21.4784 15.6258 21.4015 15.7278 21.2994L27.9588 9.06843C29.347 7.68037 29.3472 5.42974 27.9592 4.04152ZM26.6458 7.75633L14.5745 19.8277L10.9679 21.032L12.1685 17.4301L24.2445 5.35879C24.9084 4.69621 25.9838 4.6973 26.6463 5.36118C26.9628 5.67833 27.1412 6.10766 27.1425 6.55571C27.1437 7.00615 26.9648 7.43837 26.6458 7.75633Z" fill="#232323"/>
</svg>
