<svg width="27" height="27" viewBox="0 0 27 27" fill="none" xmlns="http://www.w3.org/2000/svg">
<path d="M1.46162 0.201172C0.653956 0.201172 0 0.856108 0 1.66498V25.2693C0 26.078 0.653851 26.7331 1.46162 26.7331H14.1504V16.4607H10.6971V12.4553H14.1504V9.50199C14.1504 6.07512 16.2409 4.20976 19.2934 4.20976C20.7555 4.20976 22.0111 4.31861 22.3772 4.3674V7.9481H20.2603C18.6004 7.9481 18.2783 8.73839 18.2783 9.8977V12.4553H22.2391L21.7219 16.4607H18.2783V26.7331H25.0306C25.838 26.7331 26.4923 26.0781 26.4923 25.2693V1.66498C26.4923 0.856108 25.8381 0.201172 25.0306 0.201172H1.46162Z" fill="#232323"/>
</svg>
