<svg width="36" height="36" viewBox="0 0 36 36" fill="none" xmlns="http://www.w3.org/2000/svg">
<path fill-rule="evenodd" clip-rule="evenodd" d="M17 8H18.9982V17.5817L24.7 23.2864L23.2871 24.7L17 18.4098V8Z" fill="#2353FF"/>
<path fill-rule="evenodd" clip-rule="evenodd" d="M31.9335 19.3752L33.9241 19.5689C33.9743 19.0527 34 18.5294 34 18C34 17.4706 33.9743 16.9473 33.9241 16.4311L31.9335 16.6248C31.9774 17.0767 32 17.5354 32 18C32 18.4646 31.9774 18.9233 31.9335 19.3752ZM31.4009 13.9338L33.315 13.3539C33.0084 12.342 32.6043 11.3725 32.1136 10.4563L30.3506 11.4006C30.7797 12.2019 31.133 13.0495 31.4009 13.9338ZM28.8233 9.1192L30.3686 7.84955C29.7034 7.03985 28.9601 6.29663 28.1504 5.63136L26.8808 7.17667C27.5899 7.75924 28.2408 8.41014 28.8233 9.1192ZM24.5994 5.64945L25.5437 3.88642C24.6275 3.3957 23.658 2.99159 22.6461 2.68501L22.0662 4.59909C22.9505 4.86701 23.7981 5.22025 24.5994 5.64945ZM19.3752 4.06654L19.5689 2.07594C19.0527 2.02571 18.5294 2 18 2C17.4706 2 16.9473 2.02571 16.4311 2.07594C15.3717 2.17904 14.3426 2.38547 13.3539 2.68501C12.342 2.99159 11.3725 3.3957 10.4563 3.88642C9.52896 4.38312 8.65626 4.96855 7.84955 5.63136C7.03985 6.29663 6.29663 7.03985 5.63136 7.84955C4.96855 8.65626 4.38312 9.52896 3.88642 10.4563C3.3957 11.3725 2.99159 12.342 2.68501 13.3539C2.38547 14.3426 2.17904 15.3717 2.07594 16.4311C2.02571 16.9473 2 17.4706 2 18C2 18.5294 2.02571 19.0527 2.07594 19.5689C2.17904 20.6283 2.38547 21.6574 2.68501 22.6461C2.99159 23.658 3.3957 24.6275 3.88642 25.5437C4.38312 26.471 4.96855 27.3437 5.63136 28.1504C6.29663 28.9601 7.03985 29.7034 7.84955 30.3686C8.65626 31.0314 9.52896 31.6169 10.4563 32.1136C11.3725 32.6043 12.342 33.0084 13.3539 33.315C14.3426 33.6145 15.3717 33.821 16.4311 33.9241C16.9473 33.9743 17.4706 34 18 34C18.5294 34 19.0527 33.9743 19.5689 33.9241L19.3752 31.9335C18.9233 31.9774 18.4646 32 18 32C17.839 32 17.6786 31.9973 17.519 31.9919C14.0895 31.8761 10.9728 30.5269 8.59847 28.3737C8.27924 28.0842 7.97342 27.7802 7.68205 27.4627C5.46493 25.0465 4.08547 21.8492 4.00383 18.3311C4.00128 18.2211 4 18.1107 4 18C4 17.9419 4.00035 17.8839 4.00106 17.8261C4.09351 10.2321 10.2321 4.09351 17.8261 4.00106C17.8839 4.00035 17.9419 4 18 4C18.4646 4 18.9233 4.02256 19.3752 4.06654ZM22.0662 31.4009L22.6461 33.315C23.658 33.0084 24.6275 32.6043 25.5437 32.1136L24.5994 30.3506C23.7981 30.7797 22.9505 31.133 22.0662 31.4009ZM26.8808 28.8233L28.1504 30.3686C28.9601 29.7034 29.7034 28.9601 30.3686 28.1504L28.8233 26.8808C28.2408 27.5899 27.5899 28.2408 26.8808 28.8233ZM30.3506 24.5994L32.1136 25.5437C32.6043 24.6275 33.0084 23.658 33.315 22.6461L31.4009 22.0662C31.133 22.9505 30.7798 23.7981 30.3506 24.5994Z" fill="#232323"/>
</svg>
