<svg width="24" height="24" xmlns="http://www.w3.org/2000/svg">
  <path fill-rule="evenodd" clip-rule="evenodd"
    d="M12 2C6.477 2 2 6.477 2 12s4.477 10 10 10c.33 0 .658-.016.98-.047l-.096-.996a9 9 0 110-17.914l.097-.996C12.658 2.017 12.33 2 12 2zm2.614 18.615l.29.957a9.935 9.935 0 001.81-.751l-.471-.882a8.944 8.944 0 01-1.63.676zm3.095-1.657l.635.772c.506-.415.97-.88 1.386-1.386l-.772-.635a9.06 9.06 0 01-1.249 1.249zm2.23-2.715l.882.472c.307-.573.56-1.179.75-1.811l-.956-.29a8.94 8.94 0 01-.675 1.629zm1.018-3.36l.995.098a10.12 10.12 0 000-1.962l-.995.097a9.111 9.111 0 010 1.768zm-.342-3.497l.957-.29a9.938 9.938 0 00-.751-1.81l-.882.471c.276.516.503 1.06.676 1.63zm-1.657-3.095l.772-.635c-.415-.506-.88-.97-1.386-1.386l-.635.772a9.06 9.06 0 011.249 1.249zm-2.715-2.23l.472-.882a9.936 9.936 0 00-1.811-.75l-.29.956a8.94 8.94 0 011.629.676zM12.5 11.793V6h-1v6.207l4.146 4.147.708-.708-3.854-3.853z" />
</svg>