<svg width="27" height="27" viewBox="0 0 27 27" fill="none" xmlns="http://www.w3.org/2000/svg">
  <path
    d="M13.1351 2.01458e-05C10.9696 -0.00377387 8.83685 0.528378 6.92696 1.54902C5.01707 2.56967 3.38943 4.04709 2.18919 5.84953V2.18921H0V9.85137H7.66216V7.66218H3.69426C5.58462 4.40029 9.08185 2.18921 13.1351 2.18921C19.1937 2.18921 24.0811 7.07657 24.0811 13.1352C24.0811 19.1937 19.1937 24.0811 13.1351 24.0811C7.07655 24.0811 2.18919 19.1937 2.18919 13.1352H0C0 20.3781 5.8922 26.2703 13.1351 26.2703C20.3781 26.2703 26.2703 20.3781 26.2703 13.1352C26.2703 5.89222 20.3781 2.01458e-05 13.1351 2.01458e-05ZM12.0405 4.3784V14.2297H19.7027V12.0406H14.2297V4.3784H12.0405Z"
    fill="#232323" />
</svg>
