<svg width="36" height="36" viewBox="0 0 36 36" xmlns="http://www.w3.org/2000/svg">
<path fill-rule="evenodd" clip-rule="evenodd" d="M5 30C5 30.5523 5.44772 31 6 31H16.5C17.0523 31 17.5 30.5523 17.5 30C17.5 29.4477 17.0523 29 16.5 29H7V7H29V18C29 18.5523 29.4477 19 30 19C30.5523 19 31 18.5523 31 18V6C31 5.44772 30.5523 5 30 5H6C5.44772 5 5 5.44772 5 6V30ZM9 9H27V11H9V9ZM17 13H9V15H17V13ZM24 27C25.1046 27 26 26.1046 26 25C26 23.8954 25.1046 23 24 23C22.8954 23 22 23.8954 22 25C22 26.1046 22.8954 27 24 27ZM28.1217 21.3106C29.3313 22.1222 30.2642 23.2541 30.8049 24.5658L31 25L30.8049 25.4342C30.2642 26.7459 29.3313 27.8778 28.1217 28.6894C26.9121 29.501 25.479 29.9567 24 30C22.521 29.9567 21.0879 29.501 19.8783 28.6894C18.6687 27.8778 17.7358 26.7459 17.1951 25.4342L17 25L17.1951 24.5658C17.7358 23.2541 18.6687 22.1222 19.8783 21.3106C21.0879 20.499 22.521 20.0433 24 20C25.479 20.0433 26.9121 20.499 28.1217 21.3106ZM22.0555 27.7716C22.6311 28.1378 23.3078 28.3333 24 28.3333C24.9279 28.3322 25.8175 27.9807 26.4736 27.3558C27.1297 26.7309 27.4988 25.8837 27.5 25C27.5 24.3407 27.2947 23.6963 26.9101 23.1481C26.5256 22.5999 25.9789 22.1727 25.3394 21.9204C24.6999 21.6681 23.9961 21.6021 23.3172 21.7307C22.6383 21.8593 22.0146 22.1768 21.5251 22.643C21.0356 23.1092 20.7023 23.7031 20.5673 24.3497C20.4322 24.9963 20.5015 25.6665 20.7664 26.2756C21.0313 26.8847 21.4799 27.4053 22.0555 27.7716Z"/>
</svg>
