<svg width="28" height="27" viewBox="0 0 28 27" fill="none" xmlns="http://www.w3.org/2000/svg">
<path d="M8.19215 0C3.8886 0 0.388916 3.50688 0.388916 7.81688V19.1195C0.388916 23.4295 3.8886 26.9345 8.19215 26.9345H19.5455C23.8491 26.9345 27.3488 23.4295 27.3488 19.1195V7.81688C27.3488 3.50688 23.8491 0 19.5455 0H8.19215ZM8.19215 2.31549H19.5455C22.6084 2.31549 25.0387 4.74942 25.0387 7.81688V19.1195C25.0387 22.187 22.6084 24.619 19.5455 24.619H8.19215C5.12925 24.619 2.70091 22.187 2.70091 19.1195V7.81688C2.70091 4.74942 5.12925 2.31549 8.19215 2.31549ZM21.1042 4.63094C20.2111 4.63094 19.4876 5.35561 19.4876 6.25002C19.4876 7.14447 20.2111 7.86912 21.1042 7.86912C21.9973 7.86912 22.7209 7.14447 22.7209 6.25002C22.7209 5.35561 21.9973 4.63094 21.1042 4.63094ZM13.8688 6.53244C10.058 6.53244 6.94442 9.65075 6.94442 13.4672C6.94442 17.2838 10.058 20.4021 13.8688 20.4021C17.6796 20.4021 20.7952 17.2838 20.7952 13.4672C20.7952 9.65075 17.6796 6.53244 13.8688 6.53244ZM13.8688 8.84792C16.4304 8.84792 18.4832 10.9019 18.4832 13.4672C18.4832 16.0326 16.4304 18.0866 13.8688 18.0866C11.3073 18.0866 9.25642 16.0326 9.25642 13.4672C9.25642 10.9019 11.3073 8.84792 13.8688 8.84792Z" fill="#232323"/>
</svg>
