<svg width="36" height="36" viewBox="0 0 36 36" fill="none" xmlns="http://www.w3.org/2000/svg">
<path fill-rule="evenodd" clip-rule="evenodd" d="M16 3.5C15.4477 3.5 15 3.94772 15 4.5V7.5H15.0345C11.5209 8.72571 9 12.0685 9 16V26H6C5.44772 26 5 26.4477 5 27C5 27.5523 5.44772 28 6 28H30C30.5523 28 31 27.5523 31 27C31 26.4477 30.5523 26 30 26H27V16C27 12.0685 24.4791 8.72571 20.9655 7.5H21V4.5C21 3.94772 20.5523 3.5 20 3.5H16ZM19 7.05493V5.5H17V7.05493C17.3283 7.01863 17.662 7 18 7C18.338 7 18.6717 7.01863 19 7.05493ZM11 16C11 12.134 14.134 9 18 9C21.866 9 25 12.134 25 16V26H11V16Z" fill="#212124"/>
<path d="M14 30H22V32H14V30Z" fill="#FF601C"/>
</svg>
