<svg width="18" height="18" viewBox="0 0 18 18" fill="none" xmlns="http://www.w3.org/2000/svg">
<path fill-rule="evenodd" clip-rule="evenodd" d="M13.5 7.5C13.5 10.8137 10.8137 13.5 7.5 13.5C4.18629 13.5 1.5 10.8137 1.5 7.5C1.5 4.18629 4.18629 1.5 7.5 1.5C10.8137 1.5 13.5 4.18629 13.5 7.5ZM12.251 13.3036C10.9574 14.3638 9.30301 15 7.5 15C3.35786 15 0 11.6421 0 7.5C0 3.35786 3.35786 0 7.5 0C11.6421 0 15 3.35786 15 7.5C15 9.30301 14.3638 10.9574 13.3036 12.251L17.4737 16.4211C17.7644 16.7118 17.7644 17.183 17.4737 17.4737C17.183 17.7644 16.7118 17.7644 16.4211 17.4737L12.251 13.3036Z" fill="black"/>
</svg>
