<svg width="32" height="32" viewBox="0 0 32 32" fill="none" xmlns="http://www.w3.org/2000/svg">
<path d="M26.0833 21.4999C25.0724 21.4999 24.25 20.6775 24.25 19.6666V13.2499C24.25 11.0409 23.3882 8.96548 21.8233 7.40605C20.8586 6.4447 19.6985 5.75159 18.433 5.36292C18.635 4.98044 18.75 4.54514 18.75 4.08325C18.75 2.56691 17.5163 1.33325 16 1.33325C14.4837 1.33325 13.25 2.56691 13.25 4.08325C13.25 4.54777 13.3662 4.98554 13.5704 5.36962C10.2048 6.42087 7.75 9.59528 7.75 13.3296V19.6666C7.75 20.6775 6.92758 21.4999 5.91667 21.4999C5.41044 21.4999 5 21.9104 5 22.4166V26.0833C5 26.5895 5.41044 26.9999 5.91667 26.9999H12.8246C12.8032 27.1505 12.7917 27.3035 12.7917 27.4583C12.7917 29.2273 14.2309 30.6666 16 30.6666C17.7691 30.6666 19.2083 29.2273 19.2083 27.4583C19.2083 27.3035 19.1969 27.1505 19.1754 26.9999H26.0833C26.5896 26.9999 27 26.5895 27 26.0833V22.4166C27 21.9104 26.5896 21.4999 26.0833 21.4999ZM16 3.16659C16.5054 3.16659 16.9167 3.57782 16.9167 4.08325C16.9167 4.58868 16.5054 4.99992 16 4.99992C15.4946 4.99992 15.0833 4.58868 15.0833 4.08325C15.0833 3.57782 15.4946 3.16659 16 3.16659ZM17.375 27.4583C17.375 28.2164 16.7582 28.8333 16 28.8333C15.2418 28.8333 14.625 28.2164 14.625 27.4583C14.625 27.2998 14.6515 27.1456 14.703 26.9999H17.297C17.3485 27.1456 17.375 27.2998 17.375 27.4583ZM25.1667 25.1666H17.8333H14.1667H6.83333V23.2172C8.41304 22.8092 9.58333 21.372 9.58333 19.6666V13.3296C9.58333 9.75988 12.4515 6.84568 15.9769 6.83331C15.9847 6.83331 15.9924 6.83325 16.0001 6.83325C17.7099 6.83325 19.3176 7.49732 20.5292 8.70468C21.7464 9.91755 22.4167 11.5318 22.4167 13.2499V19.6666C22.4167 21.372 23.587 22.8092 25.1667 23.2172V25.1666Z" fill="#232323"/>
<path d="M12.3334 14.1665C11.8272 14.1665 11.4167 13.7561 11.4167 13.2498C11.4167 10.7226 13.4728 8.6665 16.0001 8.6665C16.5063 8.6665 16.9167 9.07694 16.9167 9.58317C16.9167 10.0894 16.5063 10.4998 16.0001 10.4998C14.4837 10.4998 13.2501 11.7335 13.2501 13.2498C13.2501 13.7561 12.8396 14.1665 12.3334 14.1665Z" fill="#232323"/>
</svg>
