<svg width="328" height="328" viewBox="0 0 330 330" fill="none" xmlns="http://www.w3.org/2000/svg">
    <rect x="0.5" y="0.5" width="329" height="329" fill="#F9F9F9" stroke="#E3E3E3" />
    <path d="M123.714 162.796L117.687 168.995L123.714 175.194L129.74 168.995L123.714 162.796Z" fill="url(#paint0_linear)" />
    <path d="M123.717 147L117.691 153.2L123.718 159.399L129.745 153.199L123.717 147Z" fill="url(#paint1_linear)" />
    <path d="M116.038 154.897L110.012 161.096L116.038 167.295L122.065 161.096L116.038 154.897Z" fill="url(#paint2_linear)" />
    <path d="M116.046 183.098L110 176.899L116.046 170.68L122.072 176.899L116.046 183.098Z" fill="url(#paint3_linear)" />
    <path d="M146.715 172.631C147.93 172.631 148.815 172.419 149.369 171.997C149.922 171.574 150.199 170.977 150.199 170.205C150.199 169.745 150.101 169.35 149.904 169.019C149.726 168.689 149.458 168.395 149.101 168.137C148.761 167.862 148.341 167.614 147.841 167.393C147.341 167.154 146.769 166.924 146.126 166.704C145.483 166.465 144.857 166.208 144.25 165.932C143.66 165.638 143.133 165.28 142.669 164.857C142.222 164.434 141.856 163.929 141.57 163.341C141.302 162.753 141.168 162.045 141.168 161.218C141.168 159.491 141.749 158.14 142.91 157.166C144.071 156.174 145.652 155.678 147.653 155.678C148.815 155.678 149.842 155.816 150.735 156.091C151.646 156.348 152.361 156.633 152.879 156.946L151.834 159.757C151.227 159.408 150.557 159.142 149.824 158.958C149.109 158.774 148.368 158.682 147.6 158.682C146.689 158.682 145.974 158.875 145.456 159.261C144.956 159.647 144.706 160.189 144.706 160.888C144.706 161.31 144.786 161.678 144.947 161.99C145.125 162.284 145.367 162.551 145.67 162.79C145.992 163.029 146.358 163.249 146.769 163.451C147.198 163.653 147.662 163.846 148.163 164.03C149.038 164.361 149.815 164.701 150.494 165.05C151.191 165.381 151.771 165.785 152.236 166.263C152.718 166.722 153.085 167.274 153.335 167.917C153.585 168.542 153.71 169.304 153.71 170.205C153.71 171.932 153.111 173.274 151.914 174.229C150.735 175.167 149.002 175.635 146.715 175.635C145.947 175.635 145.242 175.58 144.598 175.47C143.973 175.378 143.41 175.258 142.91 175.111C142.428 174.964 142.008 174.817 141.651 174.67C141.293 174.505 141.007 174.358 140.793 174.229L141.785 171.39C142.267 171.666 142.919 171.941 143.741 172.217C144.563 172.493 145.554 172.631 146.715 172.631Z" fill="black" />
    <path d="M166.949 164.581C167.753 163.203 168.539 161.806 169.308 160.391C170.076 158.976 170.773 157.552 171.398 156.119H175.15C174.149 158.067 173.104 160.006 172.014 161.935C170.942 163.846 169.79 165.776 168.557 167.724V175.222H165.181V167.779C163.948 165.813 162.787 163.865 161.697 161.935C160.607 160.006 159.562 158.067 158.561 156.119H162.528C163.153 157.552 163.841 158.976 164.591 160.391C165.342 161.806 166.128 163.203 166.949 164.581Z" fill="black" />
    <path d="M193.989 175.222C193.382 174.174 192.703 173.053 191.953 171.859C191.202 170.646 190.425 169.433 189.621 168.22C188.817 166.989 187.995 165.803 187.156 164.664C186.334 163.506 185.548 162.468 184.797 161.549V175.222H181.474V156.119H184.235C184.949 156.891 185.717 157.809 186.539 158.875C187.361 159.923 188.183 161.016 189.005 162.156C189.844 163.295 190.648 164.444 191.417 165.601C192.203 166.741 192.899 167.807 193.507 168.799V156.119H196.857V175.222H193.989Z" fill="black" />
    <path d="M213.585 175.635C212.192 175.635 210.941 175.415 209.833 174.974C208.726 174.533 207.788 173.889 207.02 173.044C206.251 172.18 205.662 171.133 205.251 169.902C204.84 168.67 204.635 167.255 204.635 165.656C204.635 164.058 204.867 162.643 205.331 161.411C205.814 160.18 206.466 159.142 207.288 158.296C208.109 157.433 209.074 156.78 210.182 156.339C211.29 155.898 212.478 155.678 213.746 155.678C214.514 155.678 215.211 155.742 215.836 155.871C216.462 155.981 217.007 156.11 217.471 156.257C217.936 156.404 218.32 156.56 218.623 156.725C218.927 156.891 219.141 157.01 219.267 157.084L218.275 159.923C217.846 159.647 217.23 159.39 216.426 159.151C215.64 158.894 214.782 158.765 213.853 158.765C213.049 158.765 212.299 158.912 211.602 159.206C210.905 159.482 210.298 159.904 209.78 160.474C209.28 161.044 208.887 161.761 208.601 162.624C208.315 163.488 208.172 164.49 208.172 165.629C208.172 166.64 208.279 167.568 208.494 168.413C208.726 169.258 209.074 169.993 209.539 170.618C210.003 171.225 210.593 171.702 211.307 172.052C212.022 172.382 212.88 172.548 213.88 172.548C215.077 172.548 216.051 172.428 216.801 172.189C217.551 171.932 218.132 171.693 218.543 171.473L219.454 174.312C219.24 174.459 218.945 174.606 218.57 174.753C218.212 174.9 217.784 175.047 217.283 175.194C216.783 175.323 216.22 175.424 215.595 175.497C214.97 175.589 214.3 175.635 213.585 175.635Z" fill="black" />
    <defs>
      <linearGradient id="paint0_linear" x1="123.714" y1="162.796" x2="123.714" y2="175.194" gradientUnits="userSpaceOnUse">
        <stop stop-color="#5BE1FF" />
        <stop offset="1" stop-color="#1FC8FE" />
      </linearGradient>
      <linearGradient id="paint1_linear" x1="123.718" y1="147" x2="123.718" y2="159.399" gradientUnits="userSpaceOnUse">
        <stop stop-color="#FF601C" />
        <stop offset="1" stop-color="#EB5400" />
      </linearGradient>
      <linearGradient id="paint2_linear" x1="116.038" y1="154.897" x2="116.038" y2="167.295" gradientUnits="userSpaceOnUse">
        <stop stop-color="#FFD643" />
        <stop offset="1" stop-color="#FFC700" />
      </linearGradient>
      <linearGradient id="paint3_linear" x1="116.036" y1="170.68" x2="116.036" y2="183.098" gradientUnits="userSpaceOnUse">
        <stop stop-color="#4E7FFF" />
        <stop offset="1" stop-color="#2353FF" />
      </linearGradient>
    </defs>
  </svg>