<svg width="28" height="28" viewBox="0 0 28 28" fill="none" xmlns="http://www.w3.org/2000/svg">
  <path fill-rule="evenodd" clip-rule="evenodd"
    d="M24.5 10.325L26.95 11.1125C27.5625 11.2875 28 11.9 28 12.5125V15.4875C28 16.1 27.5625 16.625 27.0375 16.8L24.5 17.5875L23.975 18.9L25.2 21.175C25.4625 21.7 25.375 22.4 24.9375 22.8375L22.8375 24.9375C22.4 25.375 21.7 25.4625 21.175 25.2L18.9 23.975L17.5875 24.5L16.8 27.0375C16.625 27.5625 16.1 28 15.4875 28H12.5125C11.9 28 11.375 27.5625 11.2 27.0375L10.4125 24.5L9.1 23.975L6.825 25.2C6.3 25.4625 5.6 25.375 5.1625 24.9375L3.0625 22.8375C2.625 22.4 2.5375 21.7 2.8 21.175L4.025 18.9L3.5 17.5875L1.05 16.8C0.4375 16.625 0 16.1 0 15.4875V12.5125C0 11.9 0.4375 11.375 0.9625 11.2L3.4125 10.4125C3.5 10.1938 3.5875 9.95312 3.675 9.7125C3.7625 9.47188 3.85 9.23125 3.9375 9.0125L2.8 6.825C2.5375 6.3 2.625 5.6 3.0625 5.1625L5.1625 3.0625C5.6 2.625 6.3 2.5375 6.825 2.8L9.1 4.025C9.5375 3.7625 9.975 3.5875 10.5 3.5L11.2875 1.05C11.375 0.4375 11.9 0 12.5125 0H15.4875C16.1 0 16.625 0.4375 16.8 0.9625L17.5875 3.4125L18.9 3.9375L21.175 2.7125C21.7 2.45 22.4 2.5375 22.8375 2.975L24.9375 5.075C25.375 5.5125 25.4625 6.2125 25.2 6.7375L23.975 9.0125L24.5 10.325ZM23.1 16.1875L26.25 15.225V12.775L23.1 11.8125L23.0125 11.375C22.8375 10.7625 22.575 10.15 22.225 9.5375L21.9625 9.1L23.5375 6.2125L21.7875 4.4625L18.9 6.0375L18.4625 5.775C17.85 5.425 17.2375 5.1625 16.625 4.9875L16.1875 4.8125L15.225 1.75H12.775L11.8125 4.8125L11.375 4.9875C10.675 5.1625 10.0625 5.425 9.45 5.775L9.0125 6.0375L6.2125 4.4625L4.4625 6.2125L5.95 9.1L5.6875 9.5375C5.3375 10.15 5.075 10.7625 4.9 11.4625L4.725 11.9L1.75 12.775V15.225L4.9 16.1875L4.9875 16.625C5.1625 17.2375 5.425 17.85 5.775 18.4625L6.0375 18.9L4.4625 21.7875L6.2125 23.5375L9.1 21.9625L9.5375 22.225L11.375 23.0125L11.8125 23.1L12.775 26.25H15.225L16.1875 23.1L16.625 23.0125C17.2375 22.8375 17.85 22.575 18.4625 22.225L18.9 21.9625L21.7875 23.5375L23.5375 21.7875L21.9625 18.9L22.225 18.4625L23.0125 16.625L23.1 16.1875ZM7.96248 14C7.96248 10.5875 10.675 7.875 14.0875 7.875C17.5 7.875 20.2125 10.5875 20.2125 14C20.2125 17.4125 17.5 20.125 14.0875 20.125C10.675 20.125 7.96248 17.4125 7.96248 14ZM9.71248 14C9.71248 16.45 11.6375 18.375 14.0875 18.375C16.5375 18.375 18.4625 16.45 18.4625 14C18.4625 11.55 16.5375 9.625 14.0875 9.625C11.6375 9.625 9.71248 11.55 9.71248 14Z"
    fill="black" fill-opacity="0.85" />
</svg>
