<svg width="32" height="32" viewBox="0 0 32 32" fill="none" xmlns="http://www.w3.org/2000/svg">
<path fill-rule="evenodd" clip-rule="evenodd" d="M19.9534 19.0068H21.0068L27.6601 25.6734L25.6734 27.6601L19.0068 21.0068V19.9534L18.6468 19.5801C17.1268 20.8868 15.1534 21.6734 13.0068 21.6734C8.22009 21.6734 4.34009 17.7934 4.34009 13.0068C4.34009 8.22009 8.22009 4.34009 13.0068 4.34009C17.7934 4.34009 21.6734 8.22009 21.6734 13.0068C21.6734 15.1534 20.8868 17.1268 19.5801 18.6468L19.9534 19.0068ZM7.00675 13.0067C7.00675 16.3267 9.68675 19.0067 13.0068 19.0067C16.3267 19.0067 19.0068 16.3267 19.0068 13.0067C19.0068 9.68674 16.3267 7.00674 13.0068 7.00674C9.68675 7.00674 7.00675 9.68674 7.00675 13.0067Z" fill="#232323"/>
</svg>
