<svg width="24" height="24" xmlns="http://www.w3.org/2000/svg">
  <path
    d="M10.061 3.24L8.34 4.959v.218c0 .186.017.235.117.34a.518.518 0 00.493.145c.072-.018.528-.444 1.319-1.233l1.21-1.206.01 5.96c.01 5.617.015 5.967.082 6.068a.501.501 0 00.858 0c.067-.101.072-.451.082-6.068l.01-5.961 1.22 1.219L14.96 5.66h.219c.192 0 .235-.016.343-.124.152-.152.196-.387.105-.559-.034-.065-.815-.868-1.735-1.787l-1.674-1.67h-.436l-1.721 1.72M6.417 8.579c-.86.187-1.656.99-1.84 1.856-.083.392-.083 8.738 0 9.13.186.876.982 1.672 1.858 1.858.393.083 10.737.083 11.13 0 .876-.186 1.672-.982 1.858-1.858.083-.392.083-8.738 0-9.13-.145-.681-.653-1.322-1.318-1.661-.43-.219-.669-.253-1.81-.253-.953-.001-1.01.003-1.109.081-.22.173-.22.623 0 .796.099.077.158.082.997.082.509 0 .984.019 1.105.045.598.127 1.06.589 1.187 1.187.063.299.063 8.277 0 8.576a1.535 1.535 0 01-1.187 1.187c-.3.064-10.276.064-10.576 0a1.535 1.535 0 01-1.187-1.187c-.063-.299-.063-8.277 0-8.576a1.535 1.535 0 011.187-1.187c.121-.026.596-.045 1.105-.045.839 0 .898-.005.997-.082a.535.535 0 00.147-.24c.055-.207-.008-.446-.147-.556-.1-.078-.154-.082-1.129-.079-.69.002-1.105.021-1.268.056"
    fill-rule="evenodd" />
</svg>