<svg width="24" height="24" viewBox="0 0 24 24" fill="none" xmlns="http://www.w3.org/2000/svg">
  <path
    d="M11.5 15C11.5 15.2761 11.7239 15.5 12 15.5C12.2761 15.5 12.5 15.2761 12.5 15H11.5ZM12.3536 1.64645C12.1583 1.45118 11.8417 1.45118 11.6464 1.64645L8.46447 4.82843C8.2692 5.02369 8.2692 5.34027 8.46447 5.53553C8.65973 5.7308 8.97631 5.7308 9.17157 5.53553L12 2.70711L14.8284 5.53553C15.0237 5.7308 15.3403 5.7308 15.5355 5.53553C15.7308 5.34027 15.7308 5.02369 15.5355 4.82843L12.3536 1.64645ZM12.5 15V2H11.5V15H12.5Z"
    fill="#5A5A5C" />
  <path
    d="M8.5 9H7C5.89543 9 5 9.89543 5 11V19C5 20.1046 5.89543 21 7 21H17C18.1046 21 19 20.1046 19 19V11C19 9.89543 18.1046 9 17 9H15.5"
    stroke="#5A5A5C" stroke-linecap="round" stroke-linejoin="round" />
</svg>