<svg width="36" height="36" viewBox="0 0 36 36" fill="none" xmlns="http://www.w3.org/2000/svg">
<path fill-rule="evenodd" clip-rule="evenodd" d="M22 14C22 18.4183 18.4183 22 14 22C9.58172 22 6 18.4183 6 14C6 9.58172 9.58172 6 14 6C18.4183 6 22 9.58172 22 14ZM20.2735 21.7878C18.558 23.1715 16.3757 24 14 24C8.47715 24 4 19.5228 4 14C4 8.47715 8.47715 4 14 4C19.5228 4 24 8.47715 24 14C24 16.4268 23.1355 18.6517 21.6978 20.3836L29.9071 28.5929L28.4929 30.0071L20.2735 21.7878Z" fill="#212124"/>
<path fill-rule="evenodd" clip-rule="evenodd" d="M20 14C20 10.6863 17.3137 8 14 8V10C16.2091 10 18 11.7909 18 14H20Z" fill="#1FC8FE"/>
</svg>
