<svg width="36" height="36" viewBox="0 0 36 36" fill="none" xmlns="http://www.w3.org/2000/svg">
<path fill-rule="evenodd" clip-rule="evenodd" d="M25 15C25 20.5228 20.5228 25 15 25C9.47715 25 5 20.5228 5 15C5 9.47715 9.47715 5 15 5C20.5228 5 25 9.47715 25 15ZM22.7489 24.163C20.6582 25.9328 17.9537 27 15 27C8.37258 27 3 21.6274 3 15C3 8.37258 8.37258 3 15 3C21.6274 3 27 8.37258 27 15C27 17.9537 25.9329 20.6581 24.1631 22.7488L31.7072 30.2929C32.0977 30.6834 32.0977 31.3166 31.7072 31.7071C31.3167 32.0976 30.6835 32.0976 30.293 31.7071L22.7489 24.163Z" fill="#212124"/>
<path fill-rule="evenodd" clip-rule="evenodd" d="M18.5358 7.1557C19.8157 7.96799 20.8698 9.09043 21.6001 10.4189C22.3304 11.7473 22.7133 13.2387 22.7133 14.7547H20.7133C20.7133 13.5756 20.4155 12.4156 19.8475 11.3824C19.2794 10.3491 18.4596 9.47614 17.4641 8.84436L18.5358 7.1557Z" fill="#1FC8FE"/>
</svg>
