<svg width="36" height="36" viewBox="0 0 36 36" xmlns="http://www.w3.org/2000/svg">
<path fill-rule="evenodd" clip-rule="evenodd" d="M16 4C15.5696 4 15.1874 4.27543 15.0513 4.68377L14.1823 7.29082L13.0733 7.84529L10.5568 6.15846C10.1595 5.89214 9.62921 5.94446 9.29161 6.28329L6.29161 9.29418C5.95564 9.63137 5.90391 10.1586 6.16795 10.5547L7.84604 13.0718L7.29082 14.1823L4.68377 15.0513C4.27543 15.1874 4 15.5696 4 16V20C4 20.4304 4.27543 20.8126 4.68377 20.9487L7.29081 21.8177L7.84604 22.9282L6.16795 25.4453C5.90353 25.8419 5.95583 26.37 6.29289 26.7071L9.29289 29.7071C9.62996 30.0442 10.1581 30.0965 10.5547 29.8321L13.0718 28.154L14.1823 28.7092L15.0513 31.3162C15.1874 31.7246 15.5696 32 16 32H20C20.4304 32 20.8126 31.7246 20.9487 31.3162L21.8177 28.7092L22.9282 28.154L25.4453 29.8321C25.8419 30.0965 26.37 30.0442 26.7071 29.7071L29.7071 26.7071C30.0442 26.37 30.0965 25.8419 29.8321 25.4453L28.154 22.9282L28.7092 21.8177L31.3162 20.9487C31.7246 20.8126 32 20.4304 32 20V16C32 15.5696 31.7246 15.1874 31.3162 15.0513L28.7092 14.1823L28.154 13.0718L29.8321 10.5547C30.0965 10.1581 30.0442 9.62996 29.7071 9.29289L26.7071 6.29289C26.37 5.95583 25.8419 5.90353 25.4453 6.16795L22.9282 7.84604L21.8177 7.29081L20.9487 4.68377C20.8126 4.27543 20.4304 4 20 4H16ZM15.9487 8.31623L16.7208 6H19.2792L20.0513 8.31623C20.1352 8.56783 20.3156 8.77582 20.5528 8.89443L22.5528 9.89443C22.8738 10.0549 23.2561 10.0311 23.5547 9.83205L25.8726 8.2868L27.7132 10.1274L26.1679 12.4453C25.9689 12.7439 25.9451 13.1262 26.1056 13.4472L27.1056 15.4472C27.2242 15.6844 27.4322 15.8648 27.6838 15.9487L30 16.7208V19.2792L27.6838 20.0513C27.4322 20.1352 27.2242 20.3156 27.1056 20.5528L26.1056 22.5528C25.9451 22.8738 25.9689 23.2561 26.1679 23.5547L27.7132 25.8726L25.8726 27.7132L23.5547 26.1679C23.2561 25.9689 22.8738 25.9451 22.5528 26.1056L20.5528 27.1056C20.3156 27.2242 20.1352 27.4322 20.0513 27.6838L19.2792 30H16.7208L15.9487 27.6838C15.8648 27.4322 15.6844 27.2242 15.4472 27.1056L13.4472 26.1056C13.1262 25.9451 12.7439 25.9689 12.4453 26.1679L10.1274 27.7132L8.2868 25.8726L9.83205 23.5547C10.0311 23.2561 10.0549 22.8738 9.89443 22.5528L8.89443 20.5528C8.77582 20.3156 8.56783 20.1352 8.31623 20.0513L6 19.2792V16.7208L8.31623 15.9487C8.56783 15.8648 8.77582 15.6844 8.89443 15.4472L9.89443 13.4472C10.0549 13.1262 10.0311 12.7439 9.83205 12.4453L8.28596 10.1262L10.1272 8.27824L12.4432 9.83066C12.742 10.031 13.1254 10.0553 13.4472 9.89443L15.4472 8.89443C15.6844 8.77582 15.8648 8.56783 15.9487 8.31623ZM15 18C15 16.3431 16.3431 15 18 15C19.6569 15 21 16.3431 21 18C21 19.6569 19.6569 21 18 21C16.3431 21 15 19.6569 15 18ZM18 13C15.2386 13 13 15.2386 13 18C13 20.7614 15.2386 23 18 23C20.7614 23 23 20.7614 23 18C23 15.2386 20.7614 13 18 13Z"/>
</svg>
