<svg width="27" height="22" viewBox="0 0 27 22" fill="none" xmlns="http://www.w3.org/2000/svg">
<path d="M26.8894 2.7245C25.9152 3.1575 24.8675 3.45014 23.7683 3.58199C24.8902 2.90805 25.7516 1.84141 26.1574 0.570694C25.1074 1.19469 23.9446 1.6473 22.7061 1.89127C21.7152 0.833678 20.3026 0.172607 18.7394 0.172607C15.7376 0.172607 13.3047 2.60941 13.3047 5.61547C13.3047 6.04223 13.3523 6.45778 13.4453 6.8559C8.92826 6.62921 4.92358 4.4616 2.24295 1.16887C1.7751 1.9724 1.50711 2.90727 1.50711 3.90495C1.50711 5.7936 2.46621 7.45933 3.92495 8.43579C3.03407 8.40789 2.19593 8.16293 1.46314 7.75496C1.4621 7.77789 1.46209 7.80051 1.46209 7.82328C1.46209 10.461 3.33575 12.6604 5.82181 13.1607C5.36615 13.2852 4.88611 13.351 4.39039 13.351C4.03982 13.351 3.69993 13.3177 3.36751 13.2539C4.05959 15.4163 6.06636 16.9901 8.44505 17.0342C6.58346 18.4943 4.24038 19.3641 1.69386 19.3641C1.25547 19.3641 0.822499 19.3382 0.396973 19.2882C2.80319 20.8325 5.6596 21.7333 8.72918 21.7333C18.7257 21.7333 24.1917 13.4396 24.1917 6.2463C24.1917 6.01042 24.1862 5.77615 24.1764 5.54273C25.2378 4.77469 26.1591 3.8163 26.8882 2.72454" fill="#232323"/>
</svg>
