<svg width="24" height="24" viewBox="0 0 24 24" fill="none" xmlns="http://www.w3.org/2000/svg">
<path d="M17 17H14V15H17C17.7956 15 18.5587 14.6839 19.1213 14.1213C19.6839 13.5587 20 12.7956 20 12C20 11.2044 19.6839 10.4413 19.1213 9.87868C18.5587 9.31607 17.7956 9 17 9H14V7H17C18.3261 7 19.5979 7.52678 20.5355 8.46447C21.4732 9.40215 22 10.6739 22 12C22 13.3261 21.4732 14.5979 20.5355 15.5355C19.5979 16.4732 18.3261 17 17 17ZM10 17H7C5.67392 17 4.40215 16.4732 3.46447 15.5355C2.52678 14.5979 2 13.3261 2 12C2 10.6739 2.52678 9.40215 3.46447 8.46447C4.40215 7.52678 5.67392 7 7 7H10V9H7C6.20435 9 5.44129 9.31607 4.87868 9.87868C4.31607 10.4413 4 11.2044 4 12C4 12.7956 4.31607 13.5587 4.87868 14.1213C5.44129 14.6839 6.20435 15 7 15H10V17ZM17 13H7V11H17V13Z" fill="currentColor" />
</svg>
