<svg width="24" height="24" viewBox="0 0 24 24" fill="none" xmlns="http://www.w3.org/2000/svg">
<path d="M3 7.55356C3 5.03987 4.23857 4.03275 6.48095 4L6.72381 5.18725C5.42857 5.32644 4.79714 6.00604 4.8781 7.07866H6.04381V10.1H3V7.55356ZM7.77619 7.55356C7.77619 5.03987 9.01476 4.03275 11.2571 4L11.5 5.18725C10.2048 5.32644 9.56524 6.00604 9.65429 7.07866H10.82V10.1H7.77619V7.55356Z" fill="currentColor"/>
<path d="M16.2193 16.4465C16.2193 18.9602 14.9795 19.9673 12.735 20L12.5 18.8128C13.7965 18.6818 14.4366 17.994 14.3475 16.9296H13.1725V13.9H16.2193V16.4465ZM21 16.4465C21 18.9602 19.7602 19.9673 17.5157 20L17.2726 18.8128C18.5691 18.6818 19.2092 17.994 19.1201 16.9296H17.9533V13.9H21V16.4465Z" fill="currentColor" />
</svg>
