<svg width="24" height="24" viewBox="0 0 24 24" fill="none" xmlns="http://www.w3.org/2000/svg">
<path d="M11.9628 18C10.9599 18 10.0984 17.8588 9.37802 17.5763C8.65768 17.2797 8.05739 16.8701 7.57717 16.3475C7.11107 15.8249 6.76502 15.2105 6.53903 14.5042C6.31304 13.798 6.20005 13.0212 6.20005 12.1737V3H8.89073V11.9195C8.89073 12.5833 8.96135 13.1554 9.10259 13.6356C9.25796 14.1017 9.46982 14.4831 9.73818 14.7797C10.0207 15.0763 10.3455 15.2952 10.7128 15.4364C11.0941 15.5777 11.5178 15.6483 11.9839 15.6483C12.45 15.6483 12.8738 15.5777 13.2551 15.4364C13.6365 15.2952 13.9613 15.0763 14.2297 14.7797C14.5122 14.4831 14.7241 14.1017 14.8653 13.6356C15.0207 13.1554 15.0984 12.5833 15.0984 11.9195V3H17.789V12.1737C17.789 13.0212 17.669 13.798 17.4289 14.5042C17.2029 15.2105 16.8498 15.8249 16.3695 16.3475C15.9034 16.8701 15.3032 17.2797 14.5687 17.5763C13.8342 17.8588 12.9656 18 11.9628 18Z" fill="currentColor" />
<path fill-rule="evenodd" clip-rule="evenodd" d="M19.0001 21H5.05005V19H19.0001V21Z" fill="currentColor" />
</svg>
